<svg xmlns="http://www.w3.org/2000/svg" xmlns:xlink="http://www.w3.org/1999/xlink" width="1080" zoomAndPan="magnify" viewBox="0 0 810 809.999993" height="1080" preserveAspectRatio="none" version="1.0"><path fill="#ffffff" d="M 797.34375 405 L 531.5625 367.03125 L 531.5625 442.96875 Z M 797.34375 405 " fill-opacity="1" fill-rule="nonzero"/><path fill="#2488ff" d="M 417.65625 265.78125 L 417.65625 341.71875 L 302.460938 341.71875 C 278.449219 289.472656 225.789062 253.125 164.53125 253.125 C 80.660156 253.125 12.65625 321.128906 12.65625 405 C 12.65625 488.871094 80.660156 556.875 164.53125 556.875 C 225.800781 556.875 278.449219 520.527344 302.460938 468.28125 L 417.65625 468.28125 L 417.65625 544.21875 C 417.65625 572.0625 440.4375 594.84375 468.28125 594.84375 L 531.5625 594.84375 L 531.5625 215.15625 L 468.28125 215.15625 C 440.4375 215.15625 417.65625 237.9375 417.65625 265.78125 Z M 417.65625 265.78125 " fill-opacity="1" fill-rule="nonzero"/><path fill="#003f8a" d="M 405 265.78125 L 405 329.0625 L 310.34375 329.0625 C 282.132812 274.980469 225.761719 240.46875 164.53125 240.46875 C 73.8125 240.46875 0 314.28125 0 405 C 0 495.734375 73.8125 569.53125 164.53125 569.53125 C 225.773438 569.53125 282.132812 535.019531 310.34375 480.9375 L 405 480.9375 L 405 544.21875 C 405 579.113281 433.386719 607.5 468.28125 607.5 L 531.5625 607.5 C 538.546875 607.5 544.21875 601.828125 544.21875 594.84375 L 544.21875 453.941406 L 799.140625 417.515625 C 805.367188 416.632812 810 411.304688 810 405 C 810 398.695312 805.367188 393.367188 799.140625 392.46875 L 544.21875 356.058594 L 544.21875 215.15625 C 544.21875 208.171875 538.546875 202.5 531.5625 202.5 L 468.28125 202.5 C 433.386719 202.5 405 230.886719 405 265.78125 Z M 707.851562 405 L 544.21875 428.375 L 544.21875 381.625 Z M 518.90625 367.03125 L 518.90625 582.1875 L 468.28125 582.1875 C 447.347656 582.1875 430.3125 565.152344 430.3125 544.21875 L 430.3125 468.28125 C 430.3125 461.296875 424.640625 455.625 417.65625 455.625 L 302.460938 455.625 C 297.511719 455.625 293.015625 458.511719 290.953125 463.003906 C 268.289062 512.335938 218.648438 544.21875 164.53125 544.21875 C 87.769531 544.21875 25.3125 481.761719 25.3125 405 C 25.3125 328.238281 87.769531 265.78125 164.53125 265.78125 C 218.648438 265.78125 268.289062 297.664062 290.96875 347.007812 C 293.03125 351.503906 297.523438 354.375 302.460938 354.375 L 417.65625 354.375 C 424.640625 354.375 430.3125 348.703125 430.3125 341.71875 L 430.3125 265.78125 C 430.3125 244.847656 447.347656 227.8125 468.28125 227.8125 L 468.28125 354.375 C 468.28125 361.359375 473.953125 367.03125 480.9375 367.03125 C 487.921875 367.03125 493.59375 361.359375 493.59375 354.375 L 493.59375 227.8125 L 518.90625 227.8125 Z M 518.90625 367.03125 " fill-opacity="1" fill-rule="nonzero"/><path fill="#003f8a" d="M 164.53125 316.40625 C 171.515625 316.40625 177.1875 310.734375 177.1875 303.75 C 177.1875 296.765625 171.515625 291.09375 164.53125 291.09375 C 101.730469 291.09375 50.625 342.199219 50.625 405 C 50.625 411.984375 56.296875 417.65625 63.28125 417.65625 C 70.265625 417.65625 75.9375 411.984375 75.9375 405 C 75.9375 356.148438 115.679688 316.40625 164.53125 316.40625 Z M 164.53125 316.40625 " fill-opacity="1" fill-rule="nonzero"/><path fill="#003f8a" d="M 206.171875 338.046875 C 208.574219 340.328125 211.867188 341.71875 215.15625 341.71875 C 218.445312 341.71875 221.738281 340.328125 224.140625 338.046875 C 226.421875 335.644531 227.8125 332.351562 227.8125 329.0625 C 227.8125 325.644531 226.421875 322.480469 224.140625 320.078125 C 221.738281 317.796875 218.445312 316.40625 215.15625 316.40625 C 211.867188 316.40625 208.574219 317.796875 206.171875 320.078125 C 201.488281 324.757812 201.488281 333.238281 206.171875 338.046875 Z M 206.171875 338.046875 " fill-opacity="1" fill-rule="nonzero"/><path fill="#003f8a" d="M 471.953125 413.984375 C 474.355469 416.265625 477.648438 417.65625 480.9375 417.65625 C 484.226562 417.65625 487.519531 416.265625 489.921875 413.984375 C 492.203125 411.582031 493.59375 408.289062 493.59375 405 C 493.59375 401.710938 492.203125 398.417969 489.921875 396.015625 C 487.519531 393.734375 484.226562 392.34375 480.9375 392.34375 C 477.648438 392.34375 474.355469 393.734375 471.953125 396.015625 C 467.269531 400.695312 467.269531 409.175781 471.953125 413.984375 Z M 471.953125 413.984375 " fill-opacity="1" fill-rule="nonzero"/></svg>