<svg xmlns="http://www.w3.org/2000/svg" xmlns:xlink="http://www.w3.org/1999/xlink" width="1080" zoomAndPan="magnify" viewBox="0 0 810 809.999993" height="1080" preserveAspectRatio="none" version="1.0"><path fill="#2488ff" d="M 683.4375 417.65625 L 734.0625 417.65625 C 755.035156 417.65625 772.03125 400.660156 772.03125 379.6875 C 772.03125 358.714844 755.035156 341.71875 734.0625 341.71875 L 683.4375 341.71875 C 683.4375 327.796875 672.046875 316.40625 658.125 316.40625 L 101.25 316.40625 C 87.277344 316.40625 75.9375 327.734375 75.9375 341.71875 L 75.9375 417.65625 C 75.9375 431.628906 87.277344 442.96875 101.25 442.96875 L 658.125 442.96875 C 672.046875 442.96875 683.4375 431.578125 683.4375 417.65625 Z M 683.4375 417.65625 " fill-opacity="1" fill-rule="nonzero"/><path fill="#ffffff" d="M 683.4375 417.65625 L 683.4375 341.71875 C 683.4375 327.796875 672.046875 316.40625 658.125 316.40625 L 506.25 316.40625 C 492.328125 316.40625 480.9375 327.796875 480.9375 341.71875 L 480.9375 417.65625 C 480.9375 431.578125 492.328125 442.96875 506.25 442.96875 L 658.125 442.96875 C 672.046875 442.96875 683.4375 431.578125 683.4375 417.65625 Z M 683.4375 417.65625 " fill-opacity="1" fill-rule="nonzero"/><path fill="#ffda44" d="M 734.0625 417.65625 C 755.035156 417.65625 772.03125 400.660156 772.03125 379.6875 C 772.03125 358.714844 755.035156 341.71875 734.0625 341.71875 L 683.4375 341.71875 L 683.4375 417.65625 Z M 734.0625 417.65625 " fill-opacity="1" fill-rule="nonzero"/><path fill="#ffda44" d="M 75.9375 354.375 L 75.9375 405 L 12.65625 405 L 12.65625 354.375 Z M 75.9375 354.375 " fill-opacity="1" fill-rule="nonzero"/><path fill="#003f8a" d="M 265.78125 493.59375 C 265.78125 486.609375 260.109375 480.9375 253.125 480.9375 L 215.15625 480.9375 C 215.15625 473.953125 209.484375 468.28125 202.5 468.28125 C 195.515625 468.28125 189.84375 473.953125 189.84375 480.9375 L 101.25 480.9375 C 94.277344 480.9375 88.59375 475.253906 88.59375 468.28125 L 88.59375 453.296875 C 92.566406 454.714844 96.78125 455.625 101.25 455.625 L 658.125 455.625 C 674.628906 455.625 688.703125 445.042969 693.929688 430.3125 L 734.0625 430.3125 C 757.578125 430.3125 777.234375 414.113281 782.890625 392.34375 L 797.34375 392.34375 C 804.328125 392.34375 810 386.671875 810 379.6875 C 810 372.703125 804.328125 367.03125 797.34375 367.03125 L 782.890625 367.03125 C 777.234375 345.261719 757.578125 329.0625 734.0625 329.0625 L 693.929688 329.0625 C 688.703125 314.332031 674.628906 303.75 658.125 303.75 L 101.25 303.75 C 80.316406 303.75 63.28125 320.785156 63.28125 341.71875 L 12.65625 341.71875 C 5.671875 341.71875 0 347.390625 0 354.375 L 0 405 C 0 411.984375 5.671875 417.65625 12.65625 417.65625 L 63.28125 417.65625 L 63.28125 468.28125 C 63.28125 489.214844 80.316406 506.25 101.25 506.25 L 253.125 506.25 C 260.109375 506.25 265.78125 500.578125 265.78125 493.59375 Z M 759.375 379.6875 C 759.375 393.648438 748.023438 405 734.0625 405 L 696.09375 405 L 696.09375 354.375 L 734.0625 354.375 C 748.023438 354.375 759.375 365.726562 759.375 379.6875 Z M 670.78125 341.71875 L 670.78125 417.65625 C 670.78125 424.628906 665.097656 430.3125 658.125 430.3125 L 506.25 430.3125 C 499.277344 430.3125 493.59375 424.628906 493.59375 417.65625 L 493.59375 341.71875 C 493.59375 334.746094 499.277344 329.0625 506.25 329.0625 L 518.90625 329.0625 L 518.90625 354.375 C 518.90625 361.359375 524.578125 367.03125 531.5625 367.03125 C 538.546875 367.03125 544.21875 361.359375 544.21875 354.375 L 544.21875 329.0625 L 569.53125 329.0625 L 569.53125 354.375 C 569.53125 361.359375 575.203125 367.03125 582.1875 367.03125 C 589.171875 367.03125 594.84375 361.359375 594.84375 354.375 L 594.84375 329.0625 L 620.15625 329.0625 L 620.15625 354.375 C 620.15625 361.359375 625.828125 367.03125 632.8125 367.03125 C 639.796875 367.03125 645.46875 361.359375 645.46875 354.375 L 645.46875 329.0625 L 658.125 329.0625 C 665.097656 329.0625 670.78125 334.746094 670.78125 341.71875 Z M 101.25 329.0625 L 126.5625 329.0625 L 126.5625 341.71875 C 126.5625 348.703125 132.234375 354.375 139.21875 354.375 C 146.203125 354.375 151.875 348.703125 151.875 341.71875 L 151.875 329.0625 L 405 329.0625 L 405 341.71875 C 405 348.703125 410.671875 354.375 417.65625 354.375 C 424.640625 354.375 430.3125 348.703125 430.3125 341.71875 L 430.3125 329.0625 L 470.621094 329.0625 C 469.191406 333.035156 468.28125 337.25 468.28125 341.71875 L 468.28125 417.65625 C 468.28125 422.109375 469.191406 426.324219 470.609375 430.3125 L 101.25 430.3125 C 94.277344 430.3125 88.59375 424.628906 88.59375 417.65625 L 88.59375 341.71875 C 88.59375 334.746094 94.277344 329.0625 101.25 329.0625 Z M 25.3125 392.34375 L 25.3125 367.03125 L 63.28125 367.03125 L 63.28125 392.34375 Z M 25.3125 392.34375 " fill-opacity="1" fill-rule="nonzero"/><path fill="#003f8a" d="M 126.5625 392.34375 C 126.5625 395.632812 127.953125 398.925781 130.234375 401.328125 C 132.636719 403.609375 135.800781 405 139.21875 405 C 142.507812 405 145.800781 403.609375 148.203125 401.328125 C 152.886719 396.519531 152.886719 388.167969 148.203125 383.359375 C 145.800781 381.078125 142.507812 379.6875 139.21875 379.6875 C 135.800781 379.6875 132.636719 381.078125 130.234375 383.359375 C 127.953125 385.761719 126.5625 389.054688 126.5625 392.34375 Z M 126.5625 392.34375 " fill-opacity="1" fill-rule="nonzero"/><path fill="#003f8a" d="M 405 392.34375 C 405 395.632812 406.390625 398.925781 408.671875 401.328125 C 411.074219 403.609375 414.367188 405 417.65625 405 C 421.074219 405 424.238281 403.609375 426.640625 401.328125 C 431.324219 396.648438 431.324219 388.039062 426.640625 383.359375 C 424.238281 381.078125 421.074219 379.6875 417.65625 379.6875 C 414.367188 379.6875 411.074219 381.078125 408.671875 383.359375 C 406.390625 385.761719 405 389.054688 405 392.34375 Z M 405 392.34375 " fill-opacity="1" fill-rule="nonzero"/><path fill="#003f8a" d="M 518.90625 392.34375 C 518.90625 395.632812 520.296875 398.925781 522.578125 401.328125 C 524.980469 403.609375 528.144531 405 531.5625 405 C 534.980469 405 538.144531 403.609375 540.546875 401.328125 C 545.230469 396.519531 545.230469 388.167969 540.546875 383.359375 C 538.144531 381.078125 534.980469 379.6875 531.5625 379.6875 C 528.144531 379.6875 524.980469 381.078125 522.578125 383.359375 C 520.296875 385.761719 518.90625 389.054688 518.90625 392.34375 Z M 518.90625 392.34375 " fill-opacity="1" fill-rule="nonzero"/><path fill="#003f8a" d="M 569.53125 392.34375 C 569.53125 395.632812 570.921875 398.925781 573.203125 401.328125 C 575.605469 403.609375 578.769531 405 582.1875 405 C 585.605469 405 588.769531 403.609375 591.171875 401.328125 C 595.855469 396.648438 595.855469 388.039062 591.171875 383.359375 C 588.769531 381.078125 585.605469 379.6875 582.1875 379.6875 C 578.769531 379.6875 575.605469 381.078125 573.203125 383.359375 C 570.921875 385.761719 569.53125 389.054688 569.53125 392.34375 Z M 569.53125 392.34375 " fill-opacity="1" fill-rule="nonzero"/><path fill="#003f8a" d="M 620.15625 392.34375 C 620.15625 395.632812 621.546875 398.925781 623.828125 401.328125 C 626.230469 403.609375 629.394531 405 632.8125 405 C 636.230469 405 639.394531 403.609375 641.796875 401.328125 C 646.480469 396.648438 646.480469 388.039062 641.796875 383.359375 C 639.394531 381.078125 636.230469 379.6875 632.8125 379.6875 C 629.394531 379.6875 626.230469 381.078125 623.828125 383.359375 C 621.546875 385.761719 620.15625 389.054688 620.15625 392.34375 Z M 620.15625 392.34375 " fill-opacity="1" fill-rule="nonzero"/></svg>